<svg width="123" height="48" viewBox="0 0 123 48" fill="none" xmlns="http://www.w3.org/2000/svg">
<path d="M49.922 23.979H44.3785V9H49.8396C52.8072 9 54.6825 10.5778 54.6825 12.9744C54.6825 14.4324 53.92 15.5708 52.6629 16.0701C54.3115 16.5694 55.2595 17.8676 55.2595 19.5253C55.2595 22.2215 53.2811 23.979 49.922 23.979ZM47.0369 11.137V15.2113H49.5305C51.0761 15.2113 51.9622 14.3924 51.9622 13.1742C51.9622 12.0357 51.1173 11.137 49.6335 11.137H47.0369ZM47.0369 17.2684V21.842H49.7984C51.5501 21.842 52.5186 20.7635 52.5186 19.4853C52.5186 18.1871 51.6325 17.2684 49.819 17.2684H47.0369Z" fill="black"/>
<path d="M60.2278 11.876H57.5694V9.41941H60.2278V11.876ZM60.1454 23.979H57.6518V13.9531H60.1454V23.979Z" fill="black"/>
<path d="M67.5795 29.1717C63.9525 29.1717 62.9427 26.7951 62.9427 26.7951V25.4769H64.7768C64.7768 25.4769 65.3333 27.0148 67.5383 27.0148C69.6197 27.0148 70.6707 25.6367 70.6707 23.4797V22.4611C69.9288 23.4997 68.713 24.1388 67.1674 24.1388C64.241 24.1388 62.4275 21.7821 62.4275 18.9461C62.4275 16.0701 64.2616 13.6934 67.188 13.6934C68.7542 13.6934 69.9494 14.3725 70.6913 15.431L70.8768 13.9531H73.1849V23.4398C73.1849 25.1773 72.6903 26.5754 71.6805 27.6139C70.6707 28.6525 69.29 29.1717 67.5795 29.1717ZM67.8062 22.0617C68.6717 22.0617 69.3724 21.7621 69.8876 21.143C70.4028 20.5239 70.6707 19.7849 70.6707 18.9261C70.6707 18.0673 70.4028 17.3483 69.8876 16.7292C69.3724 16.11 68.6717 15.8105 67.8062 15.8105C66.8582 15.8105 66.137 16.11 65.663 16.7292C65.1684 17.3483 64.9211 18.0673 64.9211 18.9261C64.9211 20.6637 65.9103 22.0617 67.8062 22.0617Z" fill="black"/>
<path d="M86.7416 23.979H84.7838L82.5169 17.5281L80.3737 23.979H78.4159L75.1393 15.3511V13.9531H77.1588L79.57 20.444L81.7544 13.9531H83.6091L85.8554 20.404L88.2047 13.9531H90.1007V15.2712L86.7416 23.979Z" fill="black"/>
<path d="M94.6214 11.876H91.9629V9.41941H94.6214V11.876ZM94.5389 23.979H92.0454V13.9531H94.5389V23.979Z" fill="black"/>
<path d="M99.9123 23.979H97.4187V13.9531H99.7062L99.8505 15.2912C100.345 14.5722 101.355 13.7134 103.003 13.7134C105.806 13.7134 106.837 15.5908 106.837 17.8876V23.979H104.322V18.1871C104.322 16.8091 103.745 15.8105 102.262 15.8105C100.51 15.8105 99.9123 17.0487 99.9123 18.1871V23.979Z" fill="black"/>
<path d="M114.457 24.2187C110.83 24.2187 108.996 22.0018 108.996 18.966C108.996 16.0901 110.872 13.7134 114.251 13.7134C117.652 13.7134 119.115 15.6707 119.115 18.2471C119.115 18.9061 119.012 19.4254 119.012 19.4254H111.51C111.655 21.1031 112.644 22.2015 114.478 22.2015C116.642 22.2015 117.075 21.123 117.095 21.123H118.909V22.4412C118.909 22.4412 117.858 24.2187 114.457 24.2187ZM111.593 17.7877H116.683C116.683 16.6493 115.9 15.7106 114.251 15.7106C112.603 15.7106 111.861 16.5694 111.593 17.7877Z" fill="black"/>
<path d="M48.1537 39.348C45.6415 39.348 44.2598 37.5676 44.2598 35.4068C44.2598 33.246 45.7671 31.4657 48.1537 31.4657C50.6031 31.4657 51.1526 33.0178 51.1526 33.0178V33.8091H50.3205C50.3205 33.8091 49.9907 32.5004 48.1537 32.5004C46.3794 32.5004 45.5002 33.8699 45.5002 35.4068C45.5002 36.9589 46.3794 38.3132 48.1537 38.3132C50.0849 38.3132 50.3362 37.0046 50.3362 37.0046H51.1683V37.8111C51.1526 37.8263 50.6031 39.3328 48.1537 39.348Z" fill="black"/>
<path d="M56.4797 39.348C54.0931 39.348 52.5857 37.5676 52.5857 35.4068C52.5857 33.2308 54.0931 31.4809 56.4797 31.4809C58.8663 31.4809 60.3736 33.2308 60.3736 35.4068C60.3736 37.5676 58.8663 39.348 56.4797 39.348ZM56.4797 38.3132C58.2539 38.3132 59.1332 36.9589 59.1332 35.4068C59.1332 33.8699 58.2539 32.5156 56.4797 32.5156C54.7054 32.5156 53.8262 33.8851 53.8262 35.4068C53.8262 36.9589 54.7054 38.3132 56.4797 38.3132Z" fill="black"/>
<path d="M63.5443 39.1958H62.3039V31.6331H63.403L63.4972 32.7439C63.8583 32.0744 64.5806 31.4809 65.6483 31.4809C66.8416 31.4809 67.5167 32.0287 67.8935 32.8352C68.2861 32.12 69.0397 31.4809 70.2958 31.4809C72.1486 31.4809 72.8866 32.7743 72.8866 34.4482V39.1958H71.6462V34.5243C71.6462 33.3069 71.1908 32.5004 70.0132 32.5004C68.8199 32.5004 68.2233 33.383 68.2233 34.4786V39.1958H66.9829V34.5395C66.9829 33.3221 66.4961 32.5004 65.3656 32.5004C64.7533 32.5004 64.2979 32.7135 63.9996 33.1395C63.7013 33.5808 63.5443 34.083 63.5443 34.6612V39.1958Z" fill="black"/>
<path d="M76.5009 39.1958H75.2605V31.6331H76.3596L76.4538 32.7439C76.8149 32.0744 77.5372 31.4809 78.6049 31.4809C79.7982 31.4809 80.4734 32.0287 80.8502 32.8352C81.2427 32.12 81.9964 31.4809 83.2525 31.4809C85.1052 31.4809 85.8432 32.7743 85.8432 34.4482V39.1958H84.6028V34.5243C84.6028 33.3069 84.1475 32.5004 82.9699 32.5004C81.7766 32.5004 81.1799 33.383 81.1799 34.4786V39.1958H79.9395V34.5395C79.9395 33.3221 79.4528 32.5004 78.3223 32.5004C77.7099 32.5004 77.2546 32.7135 76.9563 33.1395C76.6579 33.5808 76.5009 34.083 76.5009 34.6612V39.1958Z" fill="black"/>
<path d="M91.1062 39.348C89.0807 39.348 88.123 38.0393 88.123 36.1524V31.6331H89.3634V36.0155C89.3634 37.4915 90.0385 38.3284 91.3574 38.3284C92.7548 38.3284 93.5399 37.3698 93.5399 36.0307V31.6331H94.7646V39.1958H93.6812L93.587 37.9785C93.1945 38.6937 92.3623 39.348 91.1062 39.348Z" fill="black"/>
<path d="M98.4582 39.1958H97.2178V31.6331H98.3169L98.4111 32.9113C98.7408 32.1961 99.5887 31.4809 100.923 31.4809C103.059 31.4809 103.859 32.8504 103.859 34.7221V39.1958H102.619V34.859C102.619 33.4134 102.085 32.5004 100.656 32.5004C99.9027 32.5004 99.3532 32.7287 98.9921 33.1852C98.6309 33.6569 98.4582 34.2047 98.4582 34.8438V39.1958Z" fill="black"/>
<path d="M107.569 29.6549H106.093V28.2397H107.569V29.6549ZM107.459 39.1958H106.218V31.6331H107.459V39.1958Z" fill="black"/>
<path d="M112.928 39.348C111.248 39.348 110.275 38.4502 110.275 36.7459V32.6678H109.003V31.6331H110.338L110.416 29.6853H111.515V31.6331H114.593V32.6678H111.515V36.5937C111.515 37.6437 111.924 38.3132 112.944 38.3132C113.996 38.3132 114.137 37.5828 114.185 37.3394H115.001V38.1306C114.891 38.3893 114.687 38.6632 114.373 38.9371C114.043 39.211 113.572 39.348 112.928 39.348Z" fill="black"/>
<path d="M122.947 32.4243L117.248 43H116.384V42.1631L118.645 38.1306L115.568 32.47V31.6331H116.431L119.32 36.9894L122.146 31.6331H122.947V32.4243Z" fill="black"/>
<path d="M1.01256 40.3897C0.971308 40.1056 0.923176 39.7592 0.9163 39.6275C0.902548 39.4959 0.88192 39.1356 0.88192 38.8307C0.875044 38.5258 0.902548 37.9507 0.936928 37.5489C0.991936 37.0292 1.0882 36.5858 1.28761 35.9899C1.44575 35.5326 1.73455 34.8328 1.94083 34.4309C2.14711 34.029 2.47716 33.4886 2.67656 33.2253C2.86909 32.962 3.07537 32.7333 3.1235 32.7195C3.16476 32.7125 3.33666 32.8026 3.50169 32.9273C3.65983 33.059 3.98988 33.2876 4.23742 33.4401C4.48496 33.5925 4.87001 33.8142 5.09692 33.9251C5.32383 34.0429 5.70889 34.2022 5.95643 34.2923C6.20396 34.3755 6.44462 34.4586 6.49276 34.4725C6.54776 34.4909 6.51568 34.5625 6.39649 34.6873C6.30023 34.7981 6.05957 35.0822 5.86016 35.3316C5.65388 35.5811 5.37884 35.9829 5.24132 36.2324C5.11067 36.4818 4.9319 36.9322 4.85626 37.2371C4.78063 37.5419 4.69124 38.0893 4.67061 38.4496C4.64998 38.8376 4.66373 39.3019 4.71187 39.5929C4.75312 39.8562 4.84251 40.2303 4.89752 40.4243C4.9594 40.6114 5.11068 40.9925 5.23444 41.2558C5.36509 41.5191 5.64701 41.9487 5.86704 42.1981C6.08707 42.4476 6.424 42.794 6.61652 42.9603C6.81593 43.1266 7.20099 43.3899 7.47603 43.5493C7.75794 43.7086 8.143 43.8818 8.32865 43.9442C8.52118 44.0066 8.85811 44.0897 9.08502 44.1313C9.31193 44.1798 9.7795 44.2144 10.1164 44.2144C10.5221 44.2144 10.9484 44.1659 11.3541 44.062C11.691 43.9788 12.1586 43.8195 12.3855 43.7017C12.6124 43.5908 13.0456 43.3206 13.3482 43.1058C13.6438 42.891 14.0426 42.5238 14.2283 42.2951C14.4139 42.0665 14.6752 41.6785 14.8127 41.429C14.9503 41.1796 15.1497 40.7292 15.2528 40.4243C15.3903 40.0363 15.4591 39.6622 15.4935 39.1771C15.521 38.7476 15.5072 38.2833 15.4522 37.9646C15.411 37.6805 15.3009 37.244 15.2184 36.9946C15.1359 36.7451 14.9503 36.3432 14.8127 36.0938C14.6752 35.8444 14.4139 35.4633 14.2283 35.2485C14.0495 35.0268 13.6782 34.6803 13.4169 34.4655C13.1556 34.2577 12.7637 33.9944 12.5574 33.8835C12.3511 33.7726 11.9798 33.6133 11.7323 33.5301C11.416 33.4262 10.9759 33.3638 10.2196 33.3153C9.6351 33.2807 8.87874 33.2045 8.53494 33.1421C8.19801 33.0798 7.54479 32.9065 7.09097 32.761C6.54089 32.5809 6.02519 32.3522 5.54387 32.0751C5.14506 31.8395 4.60873 31.4723 4.34744 31.2575C4.08615 31.0427 3.63921 30.6131 3.35041 30.3082C3.06162 30.0033 2.65593 29.4837 2.44965 29.165C2.2365 28.8393 1.98896 28.4166 1.88582 28.2296C1.78956 28.0356 1.59703 27.5852 1.46638 27.2249C1.32886 26.8646 1.17071 26.3796 1.1157 26.1509C1.05382 25.9223 0.978184 25.2848 0.936928 24.7305C0.888796 24.0376 0.888796 23.4902 0.936928 22.9636C0.978184 22.541 1.07445 21.9659 1.15696 21.6818C1.2326 21.3977 1.4045 20.8988 1.53514 20.5732C1.66579 20.2475 1.8927 19.7486 2.04397 19.4646C2.18836 19.1805 2.47028 18.737 2.65593 18.4737C2.84846 18.2174 3.04787 18.0095 3.10288 18.0095C3.15788 18.0095 3.46043 18.1758 3.76985 18.3837C4.08615 18.5915 4.60185 18.8964 4.92502 19.0696C5.2482 19.2428 5.73639 19.4646 6.00456 19.5616C6.2796 19.6586 6.50651 19.7625 6.50651 19.7902C6.50651 19.8249 6.33461 20.0327 6.12145 20.2614C5.91517 20.49 5.64701 20.8157 5.53011 20.9889C5.40634 21.1621 5.22069 21.4878 5.11755 21.7164C5.01441 21.9451 4.85626 22.444 4.78063 22.8251C4.66373 23.3794 4.64311 23.6634 4.67061 24.2455C4.69124 24.6473 4.77375 25.2224 4.85626 25.5273C4.9319 25.8322 5.11068 26.2826 5.2482 26.532C5.38572 26.7814 5.66763 27.211 5.88079 27.4882C6.15583 27.8485 6.43775 28.1048 6.85031 28.3959C7.17348 28.6176 7.54479 28.8532 7.67543 28.9224C7.80608 28.9917 8.13613 29.1234 8.39742 29.2135C8.7756 29.3451 9.1194 29.3936 10.0133 29.449C10.749 29.4906 11.4229 29.5807 11.9386 29.6915C12.3718 29.7955 12.8668 29.9202 13.0387 29.9756C13.2106 30.0311 13.6851 30.2389 14.1045 30.4399C14.524 30.6408 15.0465 30.9387 15.2734 31.0981C15.5003 31.2575 15.906 31.5762 16.1673 31.8187C16.4355 32.0543 16.7999 32.4215 16.9787 32.6294C17.1575 32.8372 17.4188 33.1837 17.5632 33.3916C17.7076 33.5994 17.962 34.0082 18.1201 34.2923C18.2851 34.5764 18.5189 35.0822 18.6496 35.4148C18.7802 35.7543 18.9452 36.2809 19.014 36.5927C19.0896 36.9114 19.1859 37.4934 19.234 37.8953C19.2753 38.3041 19.2959 38.8861 19.2684 39.2256C19.2478 39.5652 19.1515 40.2026 19.0621 40.6461C18.9727 41.0964 18.8215 41.6646 18.7252 41.914C18.6358 42.1635 18.4364 42.6139 18.2851 42.9187C18.127 43.2236 17.8588 43.6878 17.68 43.9581C17.5013 44.2214 17.1643 44.6579 16.9306 44.9212C16.6968 45.1845 16.2773 45.5933 15.9954 45.8288C15.7135 46.0644 15.2459 46.4109 14.964 46.5979C14.6821 46.785 14.1114 47.083 13.692 47.2631C13.2725 47.4363 12.6743 47.6442 12.3511 47.7273C12.028 47.8036 11.4435 47.9006 11.0447 47.9491C10.6321 47.9976 9.99953 48.0114 9.56634 47.9906C9.15378 47.9629 8.56244 47.9006 8.25989 47.8451C7.95735 47.7897 7.46228 47.6581 7.15973 47.5611C6.85719 47.4571 6.28648 47.2077 5.88767 47.0067C5.48886 46.7989 4.90439 46.4317 4.58122 46.1891C4.25805 45.9397 3.7561 45.4963 3.46731 45.1983C3.17851 44.8934 2.7797 44.4361 2.58717 44.1659C2.39465 43.8957 2.07147 43.3345 1.87207 42.9187C1.66579 42.503 1.41137 41.8794 1.29448 41.533C1.18447 41.1865 1.05382 40.6738 1.01256 40.3897Z" fill="#0842B4"/>
<path d="M1.01256 10.8381C0.971308 10.5333 0.930052 10.1868 0.9163 10.076C0.902548 9.9651 0.88192 9.65331 0.88192 9.38308C0.875044 9.11285 0.902548 8.53776 0.943804 8.10124C0.991936 7.52615 1.08132 7.10349 1.25323 6.5769C1.38387 6.17502 1.62453 5.57221 1.78956 5.22577C1.9477 4.87933 2.21587 4.38738 2.38777 4.11715C2.55967 3.84693 2.93098 3.36884 3.21289 3.05011C3.49481 2.73138 4.01739 2.23944 4.37494 1.95535C4.73249 1.67127 5.28945 1.29018 5.61263 1.11696C5.9358 0.943737 6.43087 0.708157 6.71279 0.597298C6.99471 0.486435 7.52416 0.320145 7.88171 0.223141C8.41804 0.0845642 8.74809 0.0429916 9.77262 0.015274C10.9278 -0.0193672 11.0653 -0.00551605 11.9042 0.167706C12.3993 0.271641 12.9975 0.431004 13.245 0.528008C13.4925 0.618084 14.0151 0.867523 14.4139 1.08232C14.8127 1.29018 15.3835 1.65741 15.686 1.89992C15.9885 2.1355 16.4767 2.59281 16.7793 2.91153C17.075 3.23026 17.4806 3.743 17.6869 4.04786C17.8863 4.35273 18.1889 4.87933 18.3608 5.22577C18.5327 5.57221 18.6839 5.92558 18.6908 6.02259C18.7115 6.16809 18.6496 6.22353 18.3333 6.38982C18.127 6.50068 17.7351 6.7224 17.4738 6.87484C17.2125 7.0342 16.7449 7.33907 16.4424 7.55387C16.1398 7.76866 15.8304 8.01117 15.7548 8.09431C15.6791 8.17746 15.576 8.24675 15.5347 8.23982C15.4866 8.23982 15.356 7.94881 15.2391 7.60237C15.129 7.249 14.909 6.74319 14.7509 6.47296C14.5927 6.20274 14.2489 5.75929 13.9739 5.47521C13.7057 5.19806 13.2863 4.83083 13.0387 4.67146C12.7912 4.5121 12.3924 4.2973 12.1448 4.2003C11.8973 4.10329 11.5123 3.96472 11.2853 3.89543C10.9759 3.80536 10.6528 3.77071 10.0133 3.77764C9.38756 3.77764 9.04376 3.81229 8.74122 3.90236C8.51431 3.97165 8.06737 4.15873 7.74419 4.31809C7.42102 4.47746 6.97408 4.74768 6.74717 4.92783C6.52026 5.10105 6.22459 5.36435 6.08707 5.51678C5.94955 5.66229 5.70889 5.96716 5.55762 6.19581C5.40634 6.42446 5.20006 6.78476 5.1038 6.99263C5.00753 7.20049 4.87689 7.58851 4.80813 7.85873C4.73249 8.19132 4.69124 8.62091 4.69124 9.2445C4.69124 9.95818 4.72562 10.263 4.84939 10.7342C4.9319 11.0599 5.11068 11.5241 5.2482 11.7735C5.38572 12.023 5.6195 12.3902 5.77765 12.5981C5.92892 12.8059 6.29335 13.1732 6.57527 13.4226C6.90532 13.7067 7.30413 13.97 7.67543 14.1432C7.99861 14.2956 8.50743 14.4758 8.80998 14.5451C9.11252 14.6144 9.82763 14.7114 10.3915 14.7529C10.9622 14.7945 11.7048 14.8915 12.0417 14.9608C12.3786 15.0301 12.97 15.2033 13.3482 15.3419C13.7263 15.4874 14.3314 15.7715 14.689 15.9793C15.0465 16.1872 15.5279 16.5129 15.7548 16.693C15.9817 16.8732 16.4424 17.3166 16.7724 17.67C17.1093 18.0303 17.515 18.5222 17.6732 18.7717C17.8382 19.0211 18.0789 19.423 18.2095 19.6724C18.347 19.9219 18.5671 20.4207 18.6977 20.781C18.8283 21.1413 19.0071 21.7649 19.0896 22.1668C19.1653 22.5687 19.2547 23.2339 19.2753 23.6565C19.3028 24.19 19.2822 24.6473 19.1996 25.1809C19.1378 25.6035 19.014 26.2271 18.9109 26.5666C18.8146 26.9061 18.5877 27.502 18.4089 27.8831C18.2301 28.2642 17.8795 28.8947 17.625 29.2827C17.3706 29.6777 17.1162 30.0103 17.0612 30.0311C17.0062 30.0518 16.7243 29.8925 16.4286 29.6708C16.1329 29.456 15.5554 29.1026 15.1359 28.8809C14.7165 28.6661 14.2558 28.4513 14.1045 28.4028C13.9532 28.3543 13.7882 28.2781 13.7401 28.2365C13.692 28.1949 13.6507 28.1395 13.6576 28.1048C13.6576 28.0771 13.8501 27.8554 14.0908 27.6129C14.3245 27.3704 14.6202 27.0032 14.7371 26.7953C14.8609 26.5944 15.0465 26.2271 15.1428 25.9777C15.2459 25.7282 15.3697 25.3125 15.4247 25.0423C15.5003 24.7028 15.521 24.3217 15.4935 23.7605C15.466 23.1369 15.4178 22.8389 15.2666 22.3747C15.1565 22.049 14.9434 21.564 14.7921 21.3007C14.6408 21.0305 14.3933 20.6633 14.242 20.4762C14.0908 20.2891 13.7332 19.9634 13.4513 19.7417C13.1694 19.5269 12.8256 19.2844 12.6949 19.2082C12.5643 19.125 12.2549 18.9865 12.0073 18.8895C11.7598 18.7994 11.2647 18.6747 10.9072 18.6123C10.5496 18.55 9.807 18.4737 9.25692 18.4322C8.50056 18.3767 8.08112 18.3074 7.53791 18.1481C7.1391 18.0303 6.44462 17.7531 5.99081 17.5245C5.53699 17.3028 4.90439 16.9286 4.58122 16.693C4.25805 16.4574 3.87987 16.1456 3.73547 16.0071C3.59107 15.8685 3.27478 15.522 3.04099 15.238C2.80721 14.9539 2.49091 14.5312 2.34651 14.3026C2.20212 14.0739 1.9477 13.6028 1.78956 13.2632C1.63141 12.9237 1.41137 12.3625 1.29448 12.016C1.18447 11.6696 1.05382 11.143 1.01256 10.8381Z" fill="#0842B4"/>
<path d="M15.9404 14.5867C15.6722 14.4134 15.1634 14.1293 14.8265 13.9561C14.4827 13.7829 14.2077 13.6097 14.2077 13.575C14.2077 13.5335 14.3933 13.1247 14.6271 12.6535C14.854 12.1893 15.1084 11.6973 15.1909 11.5657C15.2666 11.434 15.521 11.0737 15.7548 10.7689C15.9885 10.464 16.3942 10.0136 16.6624 9.76417C16.9237 9.51473 17.4188 9.11979 17.7557 8.89113C18.0926 8.65555 18.5808 8.35761 18.849 8.22596C19.1171 8.08739 19.626 7.87952 19.9835 7.7548C20.3411 7.63701 20.8499 7.4915 21.1181 7.443C21.3862 7.38757 22.0051 7.32521 22.4933 7.2975C23.1465 7.26978 23.6141 7.28364 24.2123 7.36679C24.6661 7.42222 25.3056 7.55386 25.6356 7.65087C25.9725 7.74787 26.4951 7.94188 26.8045 8.08739C27.1208 8.23289 27.6503 8.53776 27.9941 8.75948C28.331 8.98814 28.8742 9.40387 29.1905 9.69488C29.5068 9.97896 29.9881 10.5125 30.2563 10.8728C30.5245 11.2331 30.937 11.9052 31.1639 12.3625C31.3977 12.8198 31.6659 13.4572 31.7621 13.7829C31.8653 14.1086 31.9891 14.6559 32.0509 14.9955C32.1059 15.335 32.1541 15.9794 32.1541 16.4159C32.1541 16.8524 32.1197 17.476 32.0853 17.8016C32.0441 18.1273 31.9065 18.7509 31.769 19.1874C31.6315 19.6239 31.384 20.2683 31.2121 20.6078C31.0402 20.9473 30.7926 21.4046 30.662 21.6125C30.5245 21.8204 30.3113 22.1252 30.1875 22.2846C30.0569 22.4509 29.9125 22.5825 29.8644 22.5825C29.8231 22.5825 29.7062 22.5063 29.61 22.4093C29.5137 22.3054 29.2043 22.0767 28.9223 21.8966C28.6404 21.7095 28.2347 21.4739 28.0285 21.37C27.8222 21.2661 27.4646 21.1067 27.2377 21.0166C27.0108 20.9335 26.7426 20.8295 26.447 20.7118L26.9627 20.1921C27.3752 19.7764 27.5471 19.5338 27.8153 18.9934C28.001 18.6054 28.2004 18.0857 28.2691 17.767C28.3654 17.3305 28.386 17.0187 28.3585 16.2773C28.331 15.5428 28.2829 15.231 28.1522 14.8222C28.0628 14.5381 27.8703 14.0878 27.719 13.8175C27.5471 13.4988 27.2377 13.1177 26.832 12.702C26.4745 12.3417 26 11.9537 25.725 11.7874C25.4568 11.628 25.0443 11.434 24.7967 11.3578C24.5492 11.2747 24.0541 11.1638 23.6966 11.1084C23.284 11.0391 22.8921 11.0183 22.6308 11.046C22.4039 11.0668 21.9569 11.1499 21.6338 11.2262C21.3106 11.3024 20.8361 11.4825 20.568 11.6211C20.3067 11.7597 19.9148 12.0022 19.7016 12.1546C19.4816 12.3071 19.1171 12.6466 18.8902 12.9168C18.6564 13.187 18.3333 13.6651 18.1682 13.9908C18.0032 14.3164 17.8176 14.7599 17.7557 14.9747C17.6938 15.1964 17.6457 15.4389 17.6457 15.5151C17.6457 15.5913 17.6113 15.6676 17.5769 15.6883C17.5357 15.7091 17.2675 15.5428 16.9718 15.3142C16.683 15.0925 16.2155 14.7668 15.9404 14.5867Z" fill="#0842B4"/>
<path d="M21.1249 39.1079C21.1593 37.9507 21.1524 37.8122 21.0012 37.2094C20.9049 36.8491 20.8499 36.5373 20.8636 36.5026C20.8774 36.4749 20.9874 36.461 21.1112 36.4749C21.2281 36.4818 21.5719 36.5442 21.8744 36.6135C22.177 36.6758 22.7133 36.7243 23.0777 36.7243C23.4972 36.7243 23.9235 36.6758 24.281 36.5788C24.5836 36.5026 25.1062 36.3017 25.45 36.1354C25.8763 35.9206 26.2269 35.6781 26.5845 35.3455C26.8664 35.0891 27.2102 34.715 27.3546 34.5279C27.4921 34.3408 27.719 33.9528 27.8566 33.6687C28.001 33.3846 28.1797 32.8996 28.2554 32.5947C28.3723 32.1236 28.386 31.8949 28.3516 31.0704C28.331 30.4537 28.276 29.9618 28.2004 29.7193C28.1316 29.5114 27.9735 29.1234 27.8428 28.8532C27.7122 28.5829 27.4303 28.1395 27.2102 27.8554C26.9902 27.5644 26.6189 27.1902 26.3438 26.9824C26.0757 26.7814 25.6769 26.5251 25.45 26.4142C25.223 26.2964 24.8242 26.1301 24.5561 26.04C24.1298 25.8945 23.9579 25.8738 22.9746 25.8738C22.0051 25.8738 21.8194 25.8945 21.3931 26.0331C21.1249 26.1232 20.9049 26.1855 20.898 26.1717C20.8912 26.1578 20.953 25.7767 21.0287 25.3194C21.1456 24.6127 21.1593 24.3148 21.0837 22.1668L21.235 22.1252C21.3243 22.1045 21.9776 22.0698 22.6995 22.049C23.9922 22.0144 24.0129 22.0144 24.8999 22.2361C25.3881 22.3539 25.9794 22.5202 26.2063 22.5964C26.4332 22.6795 26.8045 22.832 27.0314 22.9498C27.2584 23.0606 27.6297 23.2616 27.8566 23.4001C28.0835 23.5318 28.441 23.7812 28.6473 23.9545C28.8536 24.1277 29.273 24.5226 29.5756 24.8344C29.8781 25.1462 30.2838 25.6312 30.4763 25.9153C30.6689 26.1994 30.9852 26.7399 31.1777 27.1209C31.3702 27.502 31.5902 28.0286 31.6728 28.2988C31.7553 28.5691 31.8447 28.8462 31.8722 28.9224C31.9065 28.9987 31.9891 29.3867 32.0509 29.7886C32.1472 30.3706 32.1678 30.7447 32.1335 31.6593C32.1059 32.4839 32.0509 32.955 31.9478 33.3569C31.8722 33.6618 31.7278 34.1329 31.6315 34.3962C31.5352 34.6595 31.329 35.1307 31.1777 35.4356C31.0264 35.7404 30.7926 36.1631 30.662 36.371C30.5245 36.5788 30.1944 37.0153 29.9262 37.3341C29.6581 37.6528 29.2043 38.1101 28.9223 38.3457C28.6404 38.5813 28.2072 38.9069 27.9597 39.0663C27.7122 39.2256 27.2515 39.4889 26.9283 39.6414C26.6051 39.7938 26.0619 40.0155 25.725 40.1264C25.3468 40.2511 24.7692 40.3758 24.2467 40.4382C23.6737 40.5075 23.1006 40.5283 22.5276 40.5006C22.0532 40.4798 21.5375 40.4382 21.0906 40.3551L21.1249 39.1079Z" fill="#0842B4"/>
</svg>
