<svg xmlns="http://www.w3.org/2000/svg" width="36" height="36" fill="none"><g fill="#F4F4F4" clip-path="url(#a)"><path d="M17.744 17.341c2.382 0 4.445-.854 6.13-2.54 1.686-1.686 2.54-3.748 2.54-6.13 0-2.382-.854-4.445-2.54-6.131S20.126 0 17.744 0c-2.383 0-4.446.854-6.131 2.54-1.686 1.686-2.54 3.748-2.54 6.13 0 2.383.854 4.446 2.54 6.131 1.686 1.686 3.749 2.54 6.13 2.54ZM32.915 27.682a21.396 21.396 0 0 0-.291-2.274 17.905 17.905 0 0 0-.56-2.288 11.295 11.295 0 0 0-.94-2.133 8.052 8.052 0 0 0-1.418-1.847 6.251 6.251 0 0 0-2.036-1.28 7.038 7.038 0 0 0-2.6-.47c-.368 0-.723.15-1.41.597-.422.276-.916.594-1.468.947-.471.3-1.11.582-1.9.837-.769.249-1.55.375-2.322.375a7.55 7.55 0 0 1-2.324-.375c-.788-.255-1.427-.536-1.898-.837-.546-.349-1.04-.668-1.47-.947-.685-.447-1.04-.598-1.408-.598a7.03 7.03 0 0 0-2.6.471 6.245 6.245 0 0 0-2.037 1.28 8.05 8.05 0 0 0-1.417 1.847c-.39.688-.707 1.406-.94 2.134a17.964 17.964 0 0 0-.56 2.287 21.34 21.34 0 0 0-.29 2.275 30.848 30.848 0 0 0-.073 2.126c0 1.88.598 3.4 1.776 4.522 1.163 1.107 2.702 1.67 4.574 1.67h17.335c1.872 0 3.41-.562 4.574-1.67 1.179-1.12 1.776-2.642 1.776-4.522 0-.726-.025-1.441-.073-2.127Z"/></g><defs><clipPath id="a"><path fill="#fff" d="M0 0h36v36H0z"/></clipPath></defs></svg>