<svg width="10" height="10" viewBox="0 0 10 10" fill="none" xmlns="http://www.w3.org/2000/svg">
<g clip-path="url(#clip0)">
<path d="M5.91616 5.01004L9.80997 1.11612C10.0634 0.862839 10.0634 0.453316 9.80997 0.200033C9.55669 -0.0532499 9.14716 -0.0532499 8.89388 0.200033L4.99995 4.09395L1.10614 0.200033C0.852742 -0.0532499 0.443336 -0.0532499 0.190052 0.200033C-0.0633506 0.453316 -0.0633506 0.862839 0.190052 1.11612L4.08386 5.01004L0.190052 8.90395C-0.0633506 9.15723 -0.0633506 9.56675 0.190052 9.82004C0.316279 9.94638 0.482248 10.0099 0.648098 10.0099C0.813949 10.0099 0.979799 9.94638 1.10614 9.82004L4.99995 5.92612L8.89388 9.82004C9.02023 9.94638 9.18608 10.0099 9.35193 10.0099C9.51778 10.0099 9.68363 9.94638 9.80997 9.82004C10.0634 9.56675 10.0634 9.15723 9.80997 8.90395L5.91616 5.01004Z" fill="white"/>
</g>
<defs>
<clipPath id="clip0">
<rect width="10" height="10" fill="white"/>
</clipPath>
</defs>
</svg>
