<svg width="16" height="17" viewBox="0 0 16 17" fill="none" xmlns="http://www.w3.org/2000/svg">
<path fill-rule="evenodd" clip-rule="evenodd" d="M11.8125 10.9926L15.7567 15.0949C16.0904 15.442 16.0794 15.9953 15.7326 16.329C15.5694 16.4861 15.3544 16.5725 15.1278 16.5725C14.8883 16.5725 14.6649 16.4773 14.4988 16.3048L10.5246 12.1715C9.39609 12.9645 8.07619 13.3823 6.69113 13.3823C3.0017 13.3823 0 10.3806 0 6.69113C0 3.0017 3.0017 0 6.69113 0C10.3806 0 13.3823 3.0017 13.3823 6.69113C13.3823 8.27023 12.8266 9.78708 11.8125 10.9926ZM11.6367 6.6911C11.6367 3.96403 9.4182 1.74548 6.69113 1.74548C3.96406 1.74548 1.74551 3.96403 1.74551 6.6911C1.74551 9.41817 3.96406 11.6367 6.69113 11.6367C9.4182 11.6367 11.6367 9.41817 11.6367 6.6911Z" fill="#B0B0B0"/>
</svg>
