<svg width="24" height="24" viewBox="0 0 24 24" fill="none" xmlns="http://www.w3.org/2000/svg">
<g clip-path="url(#clip0)">
<rect width="24" height="24" fill="white"/>
<path d="M5.37172 23.5147C5.10877 23.5147 4.84766 23.4327 4.62481 23.2716C4.2097 22.9707 4.01579 22.4536 4.12877 21.9546L5.67275 15.1534L0.436526 10.5614C0.0516273 10.2253 -0.0954104 9.69323 0.062614 9.20634C0.220638 8.72036 0.650582 8.3763 1.15963 8.32924L8.0878 7.70026L10.8269 1.29012C11.0289 0.819161 11.4889 0.515015 12 0.515015C12.511 0.515015 12.971 0.819161 13.173 1.28902L15.9121 7.70026L22.8392 8.32924C23.3493 8.3752 23.7793 8.72036 23.9373 9.20634C24.0953 9.69231 23.9492 10.2253 23.5643 10.5614L18.3281 15.1525L19.8721 21.9536C19.9852 22.4536 19.7911 22.9707 19.3762 23.2707C18.9622 23.5706 18.4101 23.5937 17.9741 23.3316L12 19.7615L6.02579 23.3337C5.82382 23.4536 5.59878 23.5147 5.37172 23.5147ZM12 18.2236C12.227 18.2236 12.4519 18.2846 12.654 18.4045L18.2922 21.7767L16.835 15.3574C16.731 14.9005 16.8861 14.4235 17.2391 14.1144L22.1833 9.77837L15.642 9.18436C15.1711 9.14133 14.766 8.84524 14.582 8.41127L12 2.36205L9.4148 8.41219C9.23279 8.84323 8.82775 9.13932 8.35789 9.18235L1.81571 9.77636L6.7597 14.1124C7.11383 14.4224 7.26874 14.8985 7.16382 15.3565L5.70773 21.7756L11.3459 18.4045C11.5479 18.2846 11.7729 18.2236 12 18.2236ZM8.03488 7.82422C8.03488 7.82422 8.03488 7.82532 8.03378 7.82624L8.03488 7.82422ZM15.963 7.82129L15.9641 7.82331C15.9641 7.82221 15.9641 7.82221 15.963 7.82129Z" fill="white"/>
<g clip-path="url(#clip1)">
<path d="M23.9372 9.20541C23.7792 8.71944 23.3482 8.37537 22.8402 8.32941L15.9121 7.70044L13.1741 1.29017C12.972 0.819219 12.512 0.515259 12 0.515259C11.4881 0.515259 11.0279 0.819219 10.827 1.29017L8.08902 7.70044L1.15982 8.32941C0.651881 8.37629 0.221759 8.72035 0.0628207 9.20541C-0.0952019 9.69138 0.0507355 10.2244 0.434897 10.5613L5.67198 15.1535L4.12783 21.9545C4.01485 22.4546 4.20895 22.9717 4.62387 23.2716C4.8469 23.4337 5.10893 23.5146 5.37187 23.5146C5.59783 23.5146 5.82396 23.4545 6.02593 23.3337L12 19.7616L17.973 23.3337C18.4112 23.5955 18.9622 23.5716 19.3762 23.2716C19.7911 22.9717 19.9852 22.4546 19.8722 21.9545L18.3281 15.1535L23.5652 10.5613C23.9491 10.2244 24.0953 9.69247 23.9372 9.20541Z" fill="#942E43"/>
</g>
</g>
<defs>
<clipPath id="clip0">
<rect width="24" height="24" fill="white"/>
</clipPath>
<clipPath id="clip1">
<rect width="24" height="24" fill="white"/>
</clipPath>
</defs>
</svg>
