<svg width="16" height="16" viewBox="0 0 16 16" fill="none" xmlns="http://www.w3.org/2000/svg">
<g clip-path="url(#clip0)">
<path d="M8.0004 16C12.4185 16 16.0001 12.4184 16.0001 8.0003C16.0001 3.58222 12.4185 0.000657082 8.0004 0.000657082C3.58231 0.000657082 0.000732422 3.58222 0.000732422 8.0003C0.000732422 12.4184 3.58231 16 8.0004 16Z" fill="white"/>
<path d="M15.5428 5.33265H10.6138C10.8278 7.04159 10.8291 8.92458 10.6178 10.6356H15.5533C15.8413 9.81017 15.9999 8.9237 15.9999 8.00007C16 7.06428 15.8379 6.16694 15.5428 5.33265Z" fill="#E4E4E4"/>
<path d="M10.6137 5.33264H15.5427C15.5418 5.3301 15.5411 5.32797 15.5402 5.32568C14.5164 2.43873 11.8828 0.314734 8.71863 0.0327883C9.94298 0.704026 10.3006 2.83069 10.6137 5.33264Z" fill="#D32027"/>
<path d="M8.71863 15.9668C11.8886 15.6843 14.526 13.553 15.5459 10.6584C15.5485 10.6507 15.5508 10.6431 15.5536 10.6356H10.6179C10.3073 13.1511 9.94818 15.2928 8.71863 15.9668Z" fill="#D32027"/>
<path d="M0 8.00007C0 8.92383 0.158521 9.81017 0.446513 10.6356H11.0296C11.241 8.92444 11.2396 7.04159 11.0256 5.33266H0.45712C0.162034 6.16698 0 7.06432 0 8.00007Z" fill="#F3F4F5"/>
<path d="M0.459687 5.32572C0.458808 5.32799 0.458032 5.33015 0.457153 5.33268H11.0256C10.7125 2.83074 9.94296 0.704104 8.71847 0.0328661C8.48162 0.0118899 8.24209 0 7.99984 0C4.51975 0 1.56014 2.22267 0.459687 5.32572Z" fill="#DB2727"/>
<path d="M11.0296 10.6356H0.446533C0.449202 10.6431 0.4516 10.6506 0.454235 10.6583C1.5504 13.7694 4.51402 15.9998 7.99982 15.9998C8.24211 15.9998 8.4816 15.9879 8.71841 15.9667C9.94814 15.2928 10.719 13.1511 11.0296 10.6356Z" fill="#DB2727"/>
</g>
<defs>
<clipPath id="clip0">
<rect width="16" height="16" fill="white"/>
</clipPath>
</defs>
</svg>
