<svg width="16" height="16" viewBox="0 0 16 16" fill="none" xmlns="http://www.w3.org/2000/svg">
<g clip-path="url(#clip0)">
<path d="M8.00052 16.0001C12.4186 16.0001 16.0002 12.4186 16.0002 8.00047C16.0002 3.58239 12.4186 0.000823975 8.00052 0.000823975C3.58243 0.000823975 0.000854492 3.58239 0.000854492 8.00047C0.000854492 12.4186 3.58243 16.0001 8.00052 16.0001Z" fill="white"/>
<path d="M15.5426 5.33266H10.6136C10.8276 7.04159 10.829 8.92458 10.6177 10.6356H15.5532C15.8412 9.81018 15.9997 8.92371 15.9997 8.00008C15.9999 7.06429 15.8377 6.16694 15.5426 5.33266Z" fill="#D32027"/>
<path d="M10.6137 5.33265H15.5426C15.5417 5.33012 15.541 5.32799 15.5401 5.3257C14.5162 2.43875 11.8826 0.314752 8.71826 0.0328064C9.94278 0.704044 10.3004 2.83071 10.6137 5.33265Z" fill="#0B0B0B"/>
<path d="M8.71838 15.9668C11.8884 15.6843 14.5257 13.553 15.5456 10.6584C15.5483 10.6507 15.5505 10.6431 15.5533 10.6356H10.6177C10.3071 13.1511 9.94794 15.2928 8.71838 15.9668Z" fill="#F3C515"/>
<path d="M0 8.00007C0 8.92383 0.158521 9.81017 0.446512 10.6356H11.0296C11.2409 8.92444 11.2396 7.04159 11.0256 5.33266H0.457153C0.162067 6.16697 0 7.06432 0 8.00007Z" fill="#DB2727"/>
<path d="M0.459565 5.32572C0.458686 5.32799 0.457909 5.33015 0.457031 5.33268H11.0256C10.7124 2.83074 9.94283 0.704104 8.71847 0.0328661C8.48159 0.0118899 8.2421 0 7.99985 0C4.51972 0 1.56002 2.22267 0.459565 5.32572Z" fill="#151515"/>
<path d="M11.0296 10.6356H0.446533C0.449202 10.6431 0.4516 10.6507 0.454235 10.6584C1.5504 13.7694 4.51402 15.9998 7.99982 15.9998C8.24211 15.9998 8.4816 15.988 8.71841 15.9667C9.948 15.2928 10.719 13.1511 11.0296 10.6356Z" fill="#F8D12E"/>
</g>
<defs>
<clipPath id="clip0">
<rect width="16" height="16" fill="white"/>
</clipPath>
</defs>
</svg>
